<?xml version="1.0" encoding="utf-8"?>
<!-- Generator: Adobe Illustrator 24.1.3, SVG Export Plug-In . SVG Version: 6.00 Build 0)  -->
<svg version="1.1" xmlns="http://www.w3.org/2000/svg" xmlns:xlink="http://www.w3.org/1999/xlink" x="0px" y="0px"
	 viewBox="0 0 595.28 841.89" style="enable-background:new 0 0 595.28 841.89;" xml:space="preserve">
<style type="text/css">
	.st0{fill:#D9D9D9;}
	.st1{fill:#2E4756;}
	.st2{clip-path:url(#SVGID_2_);}
	.st3{fill:#B29F76;}
	.st4{fill:none;}
</style>
<g id="Layer_4">
	<circle class="st0" cx="280.68" cy="365.93" r="247.79"/>
</g>
<g id="AndreaEngel">
	<g>
		<path class="st1" d="M101.05,347.86l-0.35,8.19l-8.87,2.37l-0.63,14.74l8.63,3.14l-0.34,8.04l-42.3-16.1l0.35-8.25L101.05,347.86z
			 M84.98,360.18c-7.42,2.01-13.25,3.54-17.5,4.59c4.19,1.31,9.87,3.29,17.05,5.92L84.98,360.18z"/>
		<path class="st1" d="M114.07,302.38l-2.39,7.18l-28.32,4.21l-5.29,0.31l5.81,1.46l23.24,7.73l-2.26,6.79L64.11,316.5l2.39-7.18
			l28.32-4.21l5.29-0.31l-5.84-1.47l-23.21-7.72l2.26-6.79L114.07,302.38z"/>
		<path class="st1" d="M88.6,258.04l5.75-8.49c1.29-1.91,2.52-3.52,3.69-4.85c1.17-1.32,2.69-2.48,4.58-3.49
			c1.88-1,3.95-1.52,6.21-1.54c2.26-0.02,4.56,0.3,6.9,0.97c2.34,0.67,5.09,2.07,8.25,4.2c1.6,1.08,3.18,2.36,4.75,3.83
			c1.56,1.47,2.98,3.47,4.25,6s1.82,4.97,1.66,7.32c-0.16,2.35-0.68,4.41-1.54,6.19c-0.86,1.78-1.85,3.48-2.95,5.11l-5.98,8.83
			L88.6,258.04z M123.14,271.87l0.89-1.31c1.79-2.65,2.93-4.89,3.4-6.72c0.47-1.83,0.1-3.74-1.1-5.73s-3.62-4.22-7.25-6.67
			c-3.59-2.43-6.63-3.75-9.12-3.96c-2.49-0.21-4.5,0.26-6.04,1.4c-1.54,1.14-3.02,2.76-4.43,4.85l-0.99,1.46L123.14,271.87z"/>
		<path class="st1" d="M179.97,221.31l-7.37,6.15c-8.2-2.9-13.21-4.64-15.03-5.21c-1.83-0.57-3.26-0.83-4.31-0.77
			c-1.05,0.06-2.01,0.46-2.88,1.18l-0.5,0.42l11.5,13.76l-6.08,5.08l-27.54-32.96l8.81-7.36c3.4-2.84,6.17-4.7,8.3-5.56
			c2.14-0.87,4.36-0.93,6.68-0.18s4.28,2.08,5.89,4c1.71,2.05,2.69,4.43,2.92,7.12c0.23,2.7-0.96,5.67-3.58,8.92l0.08,0.09
			c1.88-0.35,3.71-0.35,5.49-0.01c1.78,0.35,4.5,1.1,8.16,2.26L179.97,221.31z M145.71,218.1l1.3-1.09
			c2.12-1.77,3.64-3.23,4.58-4.38c0.93-1.15,1.38-2.33,1.34-3.56c-0.04-1.23-0.52-2.39-1.45-3.5c-1.03-1.23-2.12-1.97-3.29-2.22
			c-1.17-0.25-2.36-0.03-3.59,0.65c-1.23,0.68-3.02,2.01-5.37,3.97l-1.17,0.97L145.71,218.1z"/>
		<path class="st1" d="M222.87,200.16l-26.56,11.73l-17.35-39.29l25.85-11.42l2.66,6.03l-18.6,8.21l4.26,9.65l17.07-7.54l2.68,6.06
			l-17.07,7.54l5.09,11.52l19.3-8.53L222.87,200.16z"/>
		<path class="st1" d="M286.28,190.14l-8.18,0.6l-3.38-8.53l-14.71,1.09l-2.12,8.94l-8.03,0.59l11.07-43.89l8.23-0.61L286.28,190.14
			z M272.17,175.61c-2.86-7.13-5.06-12.75-6.6-16.84c-0.82,4.31-2.12,10.18-3.9,17.62L272.17,175.61z"/>
		<path class="st1" d="M366.11,212.59l-26.33-12.23l18.09-38.96l25.63,11.9l-2.78,5.98l-18.44-8.56l-4.44,9.57l16.92,7.86
			l-2.79,6.01l-16.92-7.86l-5.3,11.43l19.14,8.89L366.11,212.59z"/>
		<path class="st1" d="M406.32,242.79l-5.75-4.93l6.81-27.81l1.71-5.02l-3.55,4.83l-15.95,18.59l-5.43-4.66l27.96-32.6l5.75,4.93
			l-6.81,27.81l-1.71,5.02l3.57-4.85l15.93-18.57l5.43,4.66L406.32,242.79z"/>
		<path class="st1" d="M464.15,267.15l-5.88-5.43c2.93-3.6,3.4-6.95,1.39-10.05c-1.74-2.69-4-3.87-6.78-3.54
			c-2.79,0.33-6.42,1.94-10.9,4.83c-4.64,3-7.59,5.66-8.85,7.98c-1.26,2.32-1.03,4.81,0.69,7.47c1.52,2.35,3.32,3.74,5.4,4.15
			l6.5-4.19l-3.31-5.13l5.54-3.57l8.15,12.62l-13.86,8.94c-6.11-0.97-10.81-4-14.08-9.07c-3.09-4.79-3.89-9.29-2.39-13.5
			c1.5-4.21,5.43-8.36,11.78-12.46c12.54-8.09,21.8-7.5,27.78,1.76C469.78,254.86,469.39,261.26,464.15,267.15z"/>
		<path class="st1" d="M454.02,332.02l-8.31-27.82l41.15-12.29l8.09,27.07l-6.32,1.89l-5.82-19.48l-10.11,3.02l5.34,17.88
			l-6.35,1.89l-5.34-17.88l-12.07,3.61l6.04,20.22L454.02,332.02z"/>
		<path class="st1" d="M457.43,384.29l-0.31-30.52l42.95-0.44l0.08,7.93l-36.36,0.37l0.23,22.59L457.43,384.29z"/>
	</g>
</g>
<g id="Girld">
</g>
<g id="Layer_5">
	<path class="st1" d="M280.28,268.62c8.38,1.4,9.24,1.53,13.36,5.76c5,5.14,13.69,7.52,21.1,8.85c2.7,0.49,5.43,0.88,8.11,1.45
		c6.13,1.29,7.61,3.45,5,9.14c-4.21,9.19-8.55,18.38-13.68,27.08c-9.72,16.48-23.77,29.34-37.25,42.8
		c-14.78,14.75-30.07,24.39-49.46,31.66c-4.52,1.69-9.91,3.69-14.66,3.91c-2.71,0.13-7.13-1.75-8.75-3.97
		c-3.53-4.86-6.47-10.01-8.67-15.62c-3.09-7.89,3.96-12.46,13.85-23.27c20.39-23.84,22.51-25.66,28.31-34.44
		c14.65-22.19,22.2-33.84,29.14-47.1C268.53,271.3,273.62,267.23,280.28,268.62z M304.08,288.04c-0.5-0.22-1-0.43-1.5-0.65
		c-2.73,4-5.69,7.86-8.16,12.01c-13.33,22.37-29.67,42.4-48.72,60.19c-8.14,7.59-17.21,14.02-25.9,21.04
		c-1.43,1.6-2.84,2.99-4.44,4.57c0.21,0.31,0.4,0.63,0.61,0.95c1.42-0.22,2.56,0.09,3.69-0.59c6.16-3.74,12.68-7.12,18.17-11.68
		c20.28-16.84,38-36.06,52.36-58.09c4.97-7.63,9.01-15.85,13.34-23.87C304.11,290.84,303.91,289.35,304.08,288.04z M207.16,373.66
		c0.25,0.45,0.47,0.9,0.72,1.35c1.81-0.59,2.96-0.88,4.71-1.61c9.16-3.86,16.14-10.65,23.36-17.1
		c11.2-10.03,22.49-19.99,31.45-32.14c0.67-0.91,1.06-2.02,1.58-3.03c-0.41-0.36-0.52-0.4-0.93-0.76c-3.33,2.42-7.17,4.39-9.87,7.36
		c-14.07,15.46-28.58,29.42-45.96,41.32C210.51,370.44,208.85,372.12,207.16,373.66z"/>
</g>
<g id="Layer_6">
	<g>
		<defs>
			<circle id="SVGID_1_" cx="280.64" cy="367.36" r="247.68"/>
		</defs>
		<clipPath id="SVGID_2_">
			<use xlink:href="#SVGID_1_"  style="overflow:visible;"/>
		</clipPath>
		<path class="st2" d="M293.66,622.72c-6.69-0.97-15.34-3.66-22-4.77c-12-1.99-21.12-1.66-31.66-5.62
			c0.65-1.73-1.33-12.1-1.29-13.46c0.04-1.23-0.73-2.53-1.32-3.72c-5.92-11.86-11.66-23.81-17.94-35.48
			c-1.89-3.51-4.76-7.1-8.12-9.09c-18.74-11.13-28.13-28.74-34.57-48.47c-3.61-11.06-5.04-22.52-5.19-34.15
			c-0.07-5.48-1.69-6.76-6.94-5.63c-14.5,3.13-28.18,8.35-41,15.83c-0.69,0.4-1.43,0.73-2.4,1.22c0.12-4.32,2.14-6.86,5.81-8.23
			c18.21-6.8,36.23-14.19,55.77-16.62c3.94-0.49,7.75-2,11.62-3.03c1.08-0.29,2.16-0.54,3.24-0.82c0.2,0.36,0.4,0.71,0.6,1.07
			c-1.53,1.2-2.93,2.66-4.63,3.53c-3.14,1.59-6.43,2.89-9.7,4.19c-2.63,1.04-3.73,2.83-3.54,5.66
			c1.87,28.34,10.25,53.92,31.22,74.22c0.61,0.59,1.14,1.28,1.78,1.83c2.38,2.06,4.33,1.78,5.36-1.16
			c4.66-13.29,7.6-26.73,1.98-40.54c-3.57-8.78-6.85-17.7-10.94-26.23c-8.56-17.91-11.09-36.14-4.49-55.19
			c0.08-0.23,0.12-0.47,0.22-0.7c3.32-7.49,2.92-13.26-4.4-19.18c-8.37-6.77-10.04-17.41-10.54-27.87
			c-0.39-8.13-1.04-16.26-1.21-24.39c-0.44-21.7,5.15-41.47,19.99-57.84c9.66-10.66,22.29-15.37,36.4-16.22
			c8.92-0.54,17.47-1.6,25.69-5.85c6.32-3.26,13.37-1.75,19.8,1.12c2.87,1.28,5.67,2.87,8.19,4.74c6.26,4.63,13.05,7.96,20.65,9.7
			c2.12,0.49,4.21,1.23,6.22,2.07c4.3,1.78,6.82,5.12,6.03,9.74c-1.2,6.95,0.92,13.01,3.01,19.46c2.26,6.97,3.5,14.42,4.03,21.74
			c0.51,7.07,5.14,11.52,9.74,16.73c2.8,3.17,4.8,6.54,7.36,10.04c3.69,5.05,2.03,9.61-3.79,11.85c-4.9,1.89-4.51,4.82-2.79,7.9
			c1.33,2.37,1.79,3.93,1.71,5.01c-0.18,2.66-2.89,4.35-4.54,4.94c3.92,0.09,4.61,4.67,3.92,5.88c-1.01,1.75-1.03,2.61-3.73,5.78
			c-2.3,2.7-0.7,6.88-1.19,11.06c-0.28,2.41,0.09,6.44-1,8.62c-1.75,3.5-1.56,2.95-5.71,4.78c-0.86,0.33-8.92,3.55-13.76,4.7
			c-4.59,1.09-5.91,3.34-4.01,7.73c2.37,5.47,5.85,9.79,12.35,10.64c6.03,0.8,12.11,1.46,18.01,2.83
			c3.93,0.91,16.34,1.62,19.47,4.02c3.73,1.68,8.36,4.61,10.82,7.09c11.73,11.82,15.34,26.54,25.57,41.78
			c3.96,5.91,5.31,14.97,10.06,20.34c5.87,13.79,10.76,21.08,15.73,32.52c1.05,1.18,6.78,23.28,7.71,24.38
			c-1.89,2.06-5.39,1.47-7.46,3.73c-1.22-2.01-4.04-13.06-8.71-24.38c-14.55-19.84-25.1-65.61-46.08-91.85
			c-7.97-9.97-19.76-8.88-32.14-10.86c-6.93-1.11-10.03,2.18-8.19,8.96c2.98,10.94,5.68,21.92,5.23,33.39
			c-0.43,11.27-3.79,21.61-10.81,30.44c-8.16,10.26-8.93,21.14-3.99,32.87c3.96,9.41,9.05,18.03,17.19,24.56
			c-0.11,0.37-0.21,0.75-0.32,1.12c-2.22-0.27-4.49-0.33-6.63-0.88c-2.22-0.57-4.27-1.8-6.5-2.36c-0.75-0.19-2.62,0.88-2.58,1.18
			c1.05,7.31,2.27,14.59,3.55,21.87c0.11,0.6,1.7,4.25,2.61,5.25c-5.25,0.78-7.2,2.5-12.09,3.23
			C314.68,619.49,303.41,622.72,293.66,622.72z M279.2,268.75c-4.37-0.32-7.96,1.31-10.67,4.59c-1.77,2.14-3.37,4.48-4.67,6.94
			c-12.45,23.54-27.15,45.56-44.62,65.67c-6.78,7.81-13.92,15.3-20.81,23.01c-2.69,3.01-3.97,6.65-2.2,10.45
			c2.51,5.38,5.05,10.86,8.45,15.68c1.56,2.21,5.26,4.18,7.89,4.07c4.62-0.19,9.33-1.66,13.73-3.31
			c18.91-7.05,35.63-17.3,50.1-31.76c13.2-13.19,26.95-25.79,36.51-42c5.05-8.56,9.32-17.6,13.47-26.64
			c2.57-5.6,1.15-7.73-4.81-9.05c-2.61-0.58-5.26-0.98-7.89-1.48c-7.2-1.36-14.46-2.6-19.15-9.2
			C290.78,270.43,285.12,269.29,279.2,268.75z M333.28,390.72c7.18-0.56,17.68-3.63,13.06-8.48c-1.45-1.26-2.67-2.47-5.85-5.52
			c-1.62-2.36,2.4-4.23,5.89-6.26c5.12-2.97,6.28-4.18,2.29-8.65c-2.51-2.81-5.31-5.35-8-8c-4.69-4.62-6.9-10.04-6.27-16.77
			c0.84-9-1.61-17.36-6-25.17c-1.62-2.89-2.68-2.91-4.24-0.1c-2.19,3.93-4.21,7.95-6.32,11.93c-1.22,2.3-0.35,3.37,2.04,3.74
			c2.64,0.4,5.42,0.53,7.81,1.55c1.22,0.52,2.52,2.85,2.31,4.13c-0.19,1.17-2.27,2.68-3.67,2.87c-2.73,0.36-5.57-0.23-8.37-0.19
			c-8.51,0.12-14.01,4.92-17.83,11.96c-3.67,6.76-2.32,13.18,2.08,19.12c1.44,1.95,3.07,3.77,4.69,5.59
			c8.44,9.51,12.48,20.5,10.8,33.23c-0.52,3.95-1.83,7.8-2.66,11.72c-0.51,2.42-0.33,4.8,2.44,5.76c6.1,2.13,12.29,3.06,18.56,0.68
			c4.6-2.45,5.68-4.92,5.95-9.5c0.16-2.74-0.02-4.7-0.05-7.59c-0.01-1.57,0.36-3.43,0.56-4.91c0.22-1.6,0.98-2.44,2.15-3.73
			c0.9-1,3.17-4.48-0.09-5.04C339.53,392.47,330.22,390.96,333.28,390.72z M255.51,607.52c0.44-0.2,0.87-0.4,1.31-0.6
			c-0.5-2.77-0.6-5.68-1.56-8.28c-5.47-14.69-11.25-29.26-16.72-43.95c-4.88-13.11-3.68-25.67,3.6-37.78
			c9.47-15.76,9.24-31.83,0.68-47.92c-3.94-7.41-8.1-14.69-11.86-22.19c-5.99-11.97-9.19-24.31-4.3-37.62
			c0.56-1.52-0.08-3.49-0.17-5.25c-0.36,0.02-0.71,0.05-1.07,0.07c-5.95,11.28-9.28,22.88-3.32,35.34
			c4.88,10.19,9.82,20.36,14.97,30.41c5.19,10.11,7.35,20.77,4.79,31.79c-2.38,10.26-5.24,20.52-9.09,30.31
			c-4.59,11.67-3.46,22.63,1.53,33.52c5.98,13.03,12.27,25.92,18.51,38.83C253.42,605.44,254.6,606.42,255.51,607.52z
			 M304.02,566.02c0.35-0.16,0.71-0.32,1.06-0.49c-0.47-1.57-0.86-3.17-1.43-4.71c-3.31-8.81-3.98-17.82-1.46-26.87
			c2.38-8.53,5.21-16.94,7.89-25.39c3.95-12.45,2.63-23.94-5.71-34.4c-2.95-3.7-5.34-7.84-8.04-11.74
			c-2.81-4.06-4.16-8.57-3.75-13.44c0.57-6.65,1-13.37,2.34-19.88c2.35-11.49,4.16-22.88-1.35-33.9
			c-3.86-7.71-8.23-15.16-12.44-22.69c-0.37-0.66-1.27-1.01-1.93-1.51c-0.28,0.19-0.55,0.38-0.83,0.57
			c0.27,1.09,0.35,2.27,0.83,3.26c1.54,3.17,3.07,6.36,4.88,9.37c9.16,15.24,12.1,31.04,5.15,48.07
			c-4.19,10.27-2.8,20.18,2.68,29.75c4.29,7.49,8.2,15.19,12.31,22.78c3.04,5.62,3.65,11.51,2.18,17.68
			c-2.25,9.46-4.65,18.89-6.67,28.4c-1.34,6.27-2.7,12.64-3,19.01C296.45,556.24,299.04,561.87,304.02,566.02z M255.35,397.05
			c-7.36,4.58-10.1,14.55-6.29,21.95c3.33,6.47,6.79,12.99,11.11,18.82c11.33,15.27,14,31.91,9.72,50.13
			c-2.05,8.75-4.08,17.55-5.26,26.44c-1.53,11.55,2.05,22.36,6.34,32.94c5.92,14.58,11.12,29.35,11.15,45.39
			c0,1.06,0.56,2.13,1.17,4.27c0.77-1.97,1.4-2.83,1.4-3.68c-0.01-6.81,0.86-13.82-0.47-20.38c-2-9.82-5.33-19.41-8.54-28.94
			c-3.53-10.52-7.79-20.96-6.74-32.24c0.87-9.4,2.5-18.81,4.76-27.98c3.84-15.59,2.25-29.9-7.67-42.88
			c-3.32-4.35-6.65-8.7-9.96-13.06c-6.13-8.09-7.58-16.66-2.67-25.9C254.07,400.68,254.47,399.31,255.35,397.05z M327.16,530.32
			c0.64,0.12,1.28,0.25,1.92,0.37c2.06-4.74,4.57-9.34,6.11-14.25c4.81-15.28,2.89-30.54-0.92-45.7c-0.92-3.65-1.96-7.29-3.27-10.81
			c-1.09-2.92-5.53-4.77-7.94-3.3c-2.69,1.64-0.82,3.91-0.11,5.77c2.66,6.92,5.94,13.64,8.07,20.71c1.5,4.99,2.63,10.57,1.96,15.63
			c-1.09,8.13-3.94,16.01-5.75,24.07C326.7,525.2,327.16,527.81,327.16,530.32z M209.76,309.88c-4.3,0.36-5.96,1.67-6.72,5.53
			c-1.28,6.54-2.43,13.12-3.4,19.71c-0.89,6.07-1.48,12.18-2.24,18.57c4.62-0.36,5.69-3.06,6.24-6.19
			c1.46-8.23,2.94-16.46,4.31-24.71C208.67,318.55,209.16,314.28,209.76,309.88z M237.32,282.73c-4.25,0.62-5.99,3.05-6.93,5.79
			c-4.83,13.97-9.47,28.01-14.13,42.04c-0.18,0.55,0.19,1.29,0.44,2.68c1.31-1.16,2.43-1.74,2.93-2.65
			c1.57-2.85,3.16-5.74,4.29-8.78c4.22-11.35,8.29-22.77,12.35-34.18C236.77,286.23,236.91,284.69,237.32,282.73z"/>
		<path class="st2" d="M361.5,526.61c-0.54,5.03-1.26,10.06-1.58,15.11c-0.4,6.18-0.6,12.38-0.59,18.57c0.01,1.9,1.01,3.8,1.72,6.22
			c6.28-5.36,1.59-13.23,5.5-18.45c0.45-0.01,0.9-0.03,1.36-0.04c0.31,2.47,0.96,4.95,0.87,7.41c-0.19,5.58,0.64,11.06,0.45,16.64
			c-0.25,7.07,4.77,11.62,6.22,19.15c2.71,3.34,4.14,6.49,7.16,10.2c-6.19,1.61-12.79,3.33-19.15,4.98
			c-0.07-2.47,0.18-4.72-0.26-6.84c-2.24-10.82-4.28-21.7-7.11-32.38c-3.39-12.83-0.95-25.37,0.87-37.96
			c0.19-1.3,2.01-2.37,3.08-3.55C360.53,525.98,361.02,526.29,361.5,526.61z"/>
		<path class="st2" d="M304.14,287.95c-0.17,1.28-0.14,3.27-0.71,4.34c-4.26,7.89-8.24,15.98-13.12,23.47
			c-14.11,21.65-31.29,40.76-51.13,57.25c-5.37,4.46-11.88,8.1-17.89,11.75c-2.26,1.72-3.94,1.18-5.32,1.39
			c-0.2-0.31-0.41-0.64-0.61-0.95c1.56-1.55,4.18-4.53,5.88-5.91c8.5-6.87,17.55-13.15,25.51-20.59
			c18.65-17.43,34.4-37.08,47.5-59.07c2.43-4.08,5.65-8.31,8.33-12.24C303.06,287.61,303.65,287.74,304.14,287.95z"/>
		<path class="st2" d="M207.16,373.66c1.65-1.51,3.97-3.96,5.8-5.21c16.98-11.63,31.56-25.88,45.35-41.05
			c2.65-2.91,6.42-4.81,9.67-7.17c0.4,0.36,0.79,0.72,1.19,1.08c-0.51,1-0.9,2.09-1.55,2.98c-8.8,11.94-19.84,21.7-30.8,31.52
			c-7.06,6.33-13.75,13.29-22.68,17.05c-1.7,0.72-4.49,1.58-6.25,2.15C207.64,374.57,207.39,374.1,207.16,373.66z"/>
		<path class="st2" d="M326.47,341.89c-0.1,1.37-0.12,2.44-0.25,3.5c-0.75,6.07-1.8,6.87-7.69,5.82c-2.63-0.47-5.25-0.98-7.85-1.58
			c-0.61-0.14-1.45-0.61-1.6-1.1c-0.14-0.46,0.36-1.52,0.81-1.69c4.87-1.84,9.78-3.56,14.71-5.26
			C324.99,341.43,325.52,341.71,326.47,341.89z"/>
		<g class="st2">
			<path d="M328.1,389.66c0.01-0.43-0.17-0.85-0.46-1.15c-0.57,0.65-0.37,1.8,0.38,2.22c0.23-0.21,0.31-0.57,0.2-0.86"/>
			<g>
				<path d="M328.59,389.79c0-0.48-0.17-0.92-0.5-1.27c-0.12-0.12-0.29-0.19-0.46-0.22c-0.11-0.02-0.35-0.07-0.44,0.03
					c-0.31,0.37-0.41,0.84-0.33,1.31c0.09,0.52,0.42,0.93,0.87,1.19c0.13,0.07,0.28,0.11,0.43,0.12c0.09,0.01,0.24,0.02,0.31-0.05
					c0.26-0.25,0.35-0.63,0.23-0.97c-0.06-0.19-0.39-0.27-0.56-0.29c-0.09-0.01-0.47-0.04-0.4,0.15c0.09,0.26,0.02,0.56-0.18,0.76
					c0.25,0.02,0.49,0.05,0.74,0.07c-0.08-0.05,0.07,0.05,0,0c-0.02-0.01-0.04-0.03-0.06-0.04c-0.01-0.01-0.08-0.06-0.04-0.03
					c0.04,0.03-0.02-0.02-0.03-0.03c-0.03-0.04-0.07-0.07-0.1-0.11c-0.01-0.02-0.03-0.04-0.04-0.05c0,0-0.05-0.07-0.02-0.03
					c-0.11-0.17-0.17-0.37-0.2-0.56c-0.06-0.37,0.03-0.79,0.28-1.08c-0.3-0.06-0.6-0.12-0.9-0.19c0.27,0.28,0.42,0.65,0.42,1.04
					C327.62,389.85,328.59,390.02,328.59,389.79L328.59,389.79z"/>
			</g>
		</g>
		<g class="st2">
			<g>
				<path class="st3" d="M323.5,347.53c-0.13-0.12-0.2-0.17-0.37-0.24c-0.18-0.07-0.38-0.1-0.57-0.11
					c-0.46-0.03-0.95,0.03-1.34,0.27c-0.08,0.05-0.15,0.12-0.21,0.19c-0.04,0.04-0.07,0.09-0.09,0.15c-0.05,0.13-0.1,0.29-0.07,0.44
					c0.01,0.08,0.04,0.17,0.09,0.24c0.09,0.12,0.24,0.19,0.38,0.24c0.31,0.11,0.66,0.15,0.98,0.14c0.33-0.01,0.65-0.07,0.97-0.19
					c0.15-0.05,0.29-0.13,0.41-0.24c0.11-0.09,0.23-0.21,0.28-0.35c0.03-0.08,0.06-0.17,0.05-0.25c-0.01-0.08-0.04-0.17-0.1-0.23
					c-0.1-0.11-0.21-0.17-0.34-0.22c-0.25-0.1-0.54-0.11-0.81-0.11c-0.19,0-0.42,0.03-0.6,0.09c-0.16,0.05-0.32,0.1-0.45,0.21
					c-0.07,0.06-0.14,0.13-0.19,0.21c-0.05,0.08-0.07,0.17-0.09,0.25c-0.03,0.1-0.06,0.22-0.06,0.32c0,0.08,0.03,0.15,0.06,0.22
					c0.01,0.02,0.02,0.03,0.04,0.05c0.09,0.09,0.18,0.14,0.29,0.19c0.12,0.05,0.21,0.06,0.34,0.08c0.15,0.02,0.22,0.03,0.4,0.03
					c0.18-0.01,0.36-0.03,0.54-0.07c0.18-0.05,0.44-0.14,0.53-0.33c0.07-0.13,0.05-0.23-0.01-0.36c-0.04-0.09-0.14-0.17-0.21-0.23
					c-0.09-0.07-0.2-0.13-0.31-0.17c-0.18-0.07-0.4-0.11-0.6-0.12c-0.34-0.02-0.67,0.01-0.99,0.11c-0.11,0.04-0.21,0.08-0.31,0.14
					c-0.02,0.02-0.05,0.03-0.07,0.05c-0.08,0.07-0.14,0.13-0.18,0.23c-0.03,0.09-0.06,0.17-0.04,0.26c0.01,0.09,0.06,0.15,0.14,0.2
					c0.11,0.07,0.23,0.11,0.36,0.13c0.33,0.07,0.69,0.06,1.01-0.03c0.17-0.04,0.33-0.11,0.46-0.23c0.08-0.08,0.09-0.1,0.12-0.22
					c-0.01-0.07-0.04-0.12-0.09-0.15c-0.06-0.06-0.13-0.1-0.21-0.12c-0.1-0.04-0.21-0.06-0.32-0.07c-0.13-0.02-0.26-0.03-0.39-0.02
					c-0.23,0.01-0.49,0.03-0.7,0.14c-0.05,0.03-0.1,0.06-0.15,0.09c-0.08,0.05-0.12,0.12-0.13,0.21c0,0.01,0,0.01,0,0.02
					c0.01-0.04,0.02-0.07,0.03-0.11c-0.01,0.02-0.02,0.04-0.03,0.05c0.03-0.03,0.07-0.07,0.1-0.1c-0.01,0.01-0.02,0.01-0.03,0.02
					c0.05-0.03,0.1-0.06,0.15-0.09c0,0-0.01,0-0.01,0.01c0.07-0.02,0.13-0.05,0.2-0.07c0,0-0.01,0-0.01,0
					c0.5,0.1,1.01,0.2,1.51,0.31c-0.01-0.05-0.01-0.1,0-0.15c-0.01,0.04-0.02,0.07-0.03,0.11c0.02-0.05,0.04-0.09,0.08-0.13
					c-0.03,0.03-0.07,0.07-0.1,0.1c0.03-0.03,0.05-0.05,0.09-0.07c-0.05,0.03-0.1,0.06-0.15,0.09c0.01-0.01,0.03-0.01,0.04-0.02
					c-0.07,0.02-0.13,0.05-0.2,0.07c0.02-0.01,0.03-0.01,0.05-0.01c-0.08,0.02-0.16,0.03-0.24,0.05c0.01,0,0.02,0,0.03,0
					c-0.09,0.01-0.18,0.01-0.27,0.02c0.01,0,0.02,0,0.03,0c-0.09,0-0.18,0-0.27-0.01c0.02,0,0.03,0,0.05,0
					c-0.08-0.01-0.16-0.02-0.24-0.03c0.02,0,0.05,0.01,0.07,0.01c-0.07-0.02-0.14-0.04-0.2-0.06c0.03,0.01,0.06,0.02,0.08,0.03
					c-0.05-0.03-0.11-0.05-0.16-0.08c0.04,0.02,0.08,0.05,0.12,0.08c-0.03-0.03-0.07-0.06-0.1-0.09c0.04,0.04,0.08,0.09,0.1,0.14
					c-0.01-0.04-0.03-0.07-0.04-0.11c0.01,0.04,0.02,0.07,0,0.11c0.01-0.04,0.02-0.07,0.03-0.11c-0.01,0.02-0.02,0.04-0.04,0.06
					c0.03-0.03,0.07-0.07,0.1-0.1c-0.01,0.01-0.02,0.01-0.02,0.02c0.05-0.03,0.1-0.06,0.15-0.09c0,0-0.01,0-0.01,0.01
					c0.07-0.02,0.13-0.05,0.2-0.07c0,0-0.01,0-0.01,0c0.08-0.02,0.16-0.03,0.24-0.05c0,0-0.01,0-0.01,0
					c0.09-0.01,0.18-0.01,0.27-0.02c0,0-0.01,0-0.01,0c0.09,0,0.18,0,0.27,0.01c0,0-0.01,0-0.01,0c0.08,0.01,0.16,0.02,0.24,0.03
					c0,0-0.01,0-0.01,0c0.07,0.02,0.14,0.04,0.2,0.06c0,0-0.01,0-0.01,0c0.05,0.03,0.11,0.05,0.16,0.08c-0.01,0-0.01-0.01-0.02-0.01
					c0.03,0.03,0.07,0.06,0.1,0.09c-0.02-0.02-0.03-0.04-0.04-0.06c0.01,0.04,0.03,0.07,0.04,0.11c-0.04-0.13,0-0.3,0.04-0.43
					c-0.01,0.04-0.02,0.07-0.03,0.11c0.03-0.08,0.06-0.16,0.12-0.23c-0.03,0.03-0.07,0.07-0.1,0.1c0.02-0.02,0.05-0.04,0.08-0.06
					c-0.05,0.03-0.1,0.06-0.15,0.09c0.02-0.01,0.03-0.02,0.05-0.02c-0.07,0.02-0.13,0.05-0.2,0.07c0.01,0,0.03-0.01,0.04-0.01
					c-0.08,0.02-0.16,0.03-0.24,0.05c0.01,0,0.03,0,0.04-0.01c-0.09,0.01-0.18,0.01-0.27,0.02c0.01,0,0.03,0,0.04,0
					c-0.09,0-0.18,0-0.27-0.01c0.01,0,0.02,0,0.03,0c-0.08-0.01-0.16-0.02-0.24-0.03c0.01,0,0.03,0,0.04,0.01
					c-0.07-0.02-0.14-0.04-0.2-0.06c0.01,0,0.02,0.01,0.04,0.01c-0.05-0.03-0.11-0.05-0.16-0.08c0.02,0.01,0.03,0.02,0.04,0.03
					c-0.03-0.03-0.07-0.06-0.1-0.09c0.03,0.02,0.04,0.05,0.06,0.08c-0.01-0.04-0.03-0.07-0.04-0.11c0.02,0.06,0.02,0.11,0,0.17
					c0.01-0.04,0.02-0.07,0.03-0.11c-0.03,0.09-0.08,0.17-0.15,0.23c0.03-0.03,0.07-0.07,0.1-0.1c-0.05,0.05-0.11,0.1-0.18,0.14
					c0.05-0.03,0.1-0.06,0.15-0.09c-0.05,0.03-0.1,0.05-0.15,0.07c0.07-0.02,0.13-0.05,0.2-0.07c-0.04,0.01-0.07,0.02-0.11,0.03
					c0.08-0.02,0.16-0.03,0.24-0.05c-0.03,0.01-0.06,0.01-0.1,0.01c0.09-0.01,0.18-0.01,0.27-0.02c-0.03,0-0.05,0-0.08,0
					c0.09,0,0.18,0,0.27,0.01c-0.03,0-0.05,0-0.08-0.01c0.08,0.01,0.16,0.02,0.24,0.03c-0.04-0.01-0.07-0.01-0.11-0.02
					c0.07,0.02,0.14,0.04,0.2,0.06c-0.02-0.01-0.04-0.01-0.06-0.02c0.05,0.03,0.11,0.05,0.16,0.08c-0.03-0.01-0.05-0.03-0.07-0.05
					c0.03,0.03,0.07,0.06,0.1,0.09c-0.02-0.02-0.03-0.05-0.05-0.07c0.01,0.04,0.03,0.07,0.04,0.11c-0.04-0.11-0.02-0.24,0.01-0.35
					c-0.01,0.04-0.02,0.07-0.03,0.11c0.03-0.08,0.07-0.16,0.13-0.22c-0.03,0.03-0.07,0.07-0.1,0.1c0.03-0.03,0.06-0.05,0.09-0.07
					c-0.05,0.03-0.1,0.06-0.15,0.09c0.02-0.01,0.05-0.02,0.07-0.03c-0.07,0.02-0.13,0.05-0.2,0.07c0.02,0,0.03-0.01,0.05-0.01
					c-0.08,0.02-0.16,0.03-0.24,0.05c0.02,0,0.03-0.01,0.05-0.01c-0.09,0.01-0.18,0.01-0.27,0.02c0.02,0,0.03,0,0.05,0
					c-0.09,0-0.18,0-0.27-0.01c0.02,0,0.03,0,0.05,0c-0.08-0.01-0.16-0.02-0.24-0.03c0.02,0,0.03,0.01,0.05,0.01
					c-0.07-0.02-0.14-0.04-0.2-0.06c0.02,0.01,0.04,0.01,0.06,0.02c-0.05-0.03-0.11-0.05-0.16-0.08c0.02,0.01,0.04,0.03,0.06,0.04
					c-0.03-0.03-0.07-0.06-0.1-0.09c0,0,0.01,0.01,0.01,0.01c0.05,0.06,0.11,0.11,0.18,0.13c0.09,0.05,0.18,0.08,0.28,0.1
					c0.12,0.03,0.25,0.04,0.37,0.04c0.13,0.01,0.27,0,0.4-0.02c0.08-0.02,0.16-0.03,0.24-0.05c0.13-0.03,0.25-0.08,0.35-0.15
					c0.03-0.03,0.07-0.07,0.1-0.1C323.55,347.67,323.54,347.6,323.5,347.53L323.5,347.53z"/>
			</g>
		</g>
	</g>
	<circle class="st4" cx="279.55" cy="360.07" r="173.52"/>
</g>
</svg>
